<svg xmlns="http://www.w3.org/2000/svg" width="800" height="800" viewBox="0 0 800 800">
  <defs>
    <linearGradient id="bg" x1="0" y1="0" x2="1" y2="1">
      <stop offset="0%" stop-color="#fff7ed"/>
      <stop offset="100%" stop-color="#ffedd5"/>
    </linearGradient>
    <linearGradient id="shape" x1="0" y1="0" x2="1" y2="1">
      <stop offset="0%" stop-color="#ea580c"/>
      <stop offset="100%" stop-color="#f59e0b"/>
    </linearGradient>
  </defs>
  <rect width="800" height="800" rx="120" fill="url(#bg)"/>
  <g transform="translate(0,800) scale(0.1,-0.1)" stroke="none">
    <path fill="url(#shape)" d="M4410 6213 c-26 -10 -51 -37 -73 -78 -17 -33 -22 -65 -26 -185 -5 -118 -9 -145 -21 -147 -13 -2 -1335 -149 -1400 -155 -24 -3 -25 -1 -32 79 -14 177 -70 283 -147 283 -47 0 -76 -21 -103 -73 -19 -36 -23 -62 -26 -183 l-4 -140 -181 -21 -181 -20 -46 -54 c-25 -29 -89 -100 -143 -158 -63 -69 -101 -118 -109 -142 -11 -38 7 -171 242 -1769 27 -184 90 -621 141 -970 50 -349 96 -653 103 -674 17 -60 53 -81 134 -80 37 1 582 54 1212 117 630 64 1226 123 1325 132 268 25 268 25 313 132 13 32 48 116 78 186 30 71 52 136 50 145 -3 10 -42 197 -86 417 -45 220 -83 408 -86 417 -4 14 58 60 283 209 427 284 560 377 583 406 14 18 20 41 20 79 0 59 6 50 -179 258 -99 112 -113 121 -192 117 -17 -1 -129 -78 -335 -232 l-308 -231 -58 284 c-257 1275 -323 1590 -338 1629 -18 44 -61 61 -143 57 l-72 -3 -7 89 c-15 200 -92 314 -188 279z m46 -101 c31 -20 51 -89 63 -206 8 -85 8 -86 -83 -86 l-48 0 3 123 c3 97 8 129 22 150 18 28 25 31 43 19z m-1721 -226 c18 -26 45 -159 45 -217 l0 -39 -55 0 c-50 0 -55 2 -61 25 -9 36 1 196 14 228 14 33 36 35 57 3z m2023 -104 c11 -11 27 -58 40 -123 165 -810 225 -1102 287 -1414 41 -203 77 -378 79 -387 3 -13 -87 -87 -357 -293 -590 -449 -545 -411 -595 -495 -25 -41 -103 -164 -174 -274 -70 -109 -125 -203 -122 -208 3 -5 13 -6 23 -3 9 4 147 42 306 84 l291 78 114 80 c307 214 633 424 640 413 4 -7 15 -47 23 -89 122 -594 147 -718 147 -732 0 -9 -7 -20 -16 -23 -9 -4 -305 -35 -658 -71 -352 -35 -774 -78 -936 -95 -965 -99 -1121 -113 -1132 -102 -6 6 -26 112 -44 234 -32 223 -48 333 -124 848 -63 427 -173 1166 -255 1713 -41 273 -75 517 -75 542 0 38 4 47 23 54 35 14 529 63 538 54 5 -5 6 -46 2 -91 l-6 -82 -37 0 c-91 0 -148 -113 -104 -207 10 -19 28 -42 41 -50 31 -21 106 -20 139 2 57 37 81 123 50 183 -11 21 -12 51 -5 141 5 63 11 116 13 118 5 6 1587 183 1629 183 26 0 27 -1 27 -57 0 -88 -7 -103 -45 -103 -81 0 -139 -90 -115 -178 14 -53 37 -77 88 -93 35 -10 45 -9 78 7 72 35 103 117 70 182 -11 22 -11 48 -3 139 l10 113 36 6 c20 3 43 7 51 9 32 6 41 4 58 -13z m-324 -217 c-22 -33 -22 -112 0 -153 9 -19 32 -40 49 -47 l32 -14 -28 -1 c-41 0 -74 26 -93 76 -14 38 -15 51 -5 85 7 22 21 49 32 60 26 26 33 24 13 -6z m-1738 -210 c-18 -28 -21 -100 -6 -141 10 -26 36 -51 70 -66 10 -5 7 -7 -10 -7 -93 -3 -143 132 -79 213 26 33 47 34 25 1z m2924 -1528 c80 -94 146 -174 148 -178 3 -7 -972 -664 -1003 -676 -8 -2 -27 10 -43 29 -71 81 -212 258 -211 265 0 10 -37 -19 474 368 231 175 433 329 448 342 16 13 32 23 35 22 4 0 72 -78 152 -172z m-1030 -753 c61 -73 110 -136 109 -141 0 -4 -34 -31 -74 -60 l-75 -52 -83 102 c-143 176 -160 197 -156 201 2 3 35 27 73 55 54 39 73 48 83 39 7 -6 63 -71 123 -144z"/>
    <path fill="url(#shape)" opacity="0.85" d="M3835 5179 c-929 -100 -1175 -128 -1185 -134 -18 -11 -11 -45 9 -45 10 0 245 25 522 55 277 30 652 70 833 89 180 19 333 39 338 44 20 20 0 42 -34 41 -18 -1 -235 -23 -483 -50z"/>
    <path fill="url(#shape)" opacity="0.85" d="M3031 4781 c-264 -30 -316 -39 -325 -54 -8 -13 0 -95 36 -343 26 -180 53 -333 60 -341 7 -9 22 -13 37 -10 14 3 168 22 341 42 173 20 325 40 338 45 14 6 22 18 22 32 0 51 -100 641 -111 654 -15 18 -30 17 -398 -25z m-143 -401 l-32 -5 69 -47 69 -48 -45 0 -44 -1 47 -25 c67 -34 219 -84 259 -84 19 0 39 -4 46 -8 7 -4 -80 -18 -193 -30 -113 -13 -208 -21 -210 -19 -4 4 -39 217 -59 359 l-6 47 65 -67 65 -67 -31 -5z"/>
    <path fill="url(#shape)" opacity="0.7" d="M4300 4694 c-371 -30 -395 -33 -395 -59 0 -18 6 -20 75 -17 157 5 705 53 713 61 6 6 7 17 4 25 -8 21 -37 20 -397 -10z"/>
    <path fill="url(#shape)" opacity="0.7" d="M4305 4439 c-282 -23 -373 -33 -384 -44 -12 -12 -12 -18 -3 -27 9 -9 81 -7 324 11 501 37 463 32 463 61 0 15 -6 25 -15 26 -8 1 -181 -11 -385 -27z"/>
    <path fill="url(#shape)" opacity="0.6" d="M4450 3979 c-168 -18 -719 -76 -1244 -130 -393 -40 -394 -40 -400 -54 -2 -6 0 -18 4 -25 9 -15 -10 -17 535 40 154 16 501 52 770 80 606 63 595 61 600 71 3 4 2 14 -1 23 -8 20 -46 20 -264 -5z"/>
    <path fill="url(#shape)" opacity="0.6" d="M4205 3654 c-18 -4 -560 -59 -1105 -114 -248 -25 -250 -25 -250 -50 0 -10 3 -21 8 -23 4 -3 88 3 187 13 99 11 405 42 680 70 629 64 600 60 600 85 0 17 -7 20 -50 21 -27 1 -59 0 -70 -2z"/>
    <path fill="url(#shape)" opacity="0.5" d="M2734 2885 c3 -16 22 -131 41 -255 51 -322 58 -352 77 -364 13 -8 133 1 455 33 241 24 479 49 528 56 87 11 89 11 45 18 -25 4 -120 14 -213 22 -257 23 -587 76 -587 96 0 4 28 12 63 19 53 11 58 14 37 20 -14 5 -56 18 -95 30 -78 24 -195 85 -195 102 0 6 26 9 75 6 41 -2 75 -2 75 -1 0 2 -28 17 -62 34 -42 21 -95 63 -157 123 -84 82 -93 88 -87 61z"/>
    <path fill="#c2410c" opacity="0.9" d="M4506 3044 c-9 -8 -16 -22 -16 -29 0 -19 28 -45 49 -45 40 0 54 45 23 73 -23 21 -36 21 -56 1z"/>
    <path fill="url(#shape)" opacity="0.8" d="M5140 6157 c0 -18 -54 -157 -102 -260 -33 -73 -39 -96 -34 -128 7 -44 26 -89 37 -89 4 0 33 48 64 108 31 59 61 111 66 116 9 10 109 -187 109 -216 0 -10 3 -18 6 -18 3 0 67 40 142 89 169 108 231 145 238 138 11 -10 -135 -214 -224 -312 -50 -55 -89 -101 -88 -103 2 -1 59 -16 127 -33 128 -31 270 -73 297 -88 17 -9 -115 -36 -233 -47 -39 -3 -84 -12 -100 -19 l-30 -13 40 -17 c79 -35 154 -40 265 -21 135 24 360 103 360 127 0 5 -2 9 -4 9 -6 0 -289 84 -424 126 l-112 35 69 82 c38 45 94 120 125 165 83 122 189 342 173 358 -16 16 -288 -139 -471 -269 -37 -26 -74 -51 -81 -53 -14 -6 -63 76 -145 239 -50 99 -70 126 -70 94z"/>
  </g>
</svg>
